<svg xmlns="http://www.w3.org/2000/svg" xmlns:xlink="http://www.w3.org/1999/xlink" width="122.001" height="47" viewBox="0 0 122.001 47">
  <defs>
    <linearGradient id="linear-gradient" x1="0.413" y1="0.78" x2="0.587" y2="0.22" gradientUnits="objectBoundingBox">
      <stop offset="0" stop-color="#1b9a96"/>
      <stop offset="1" stop-color="#005a57"/>
    </linearGradient>
    <linearGradient id="linear-gradient-2" x1="1.19" y1="0.702" x2="-0.19" y2="0.298" gradientUnits="objectBoundingBox">
      <stop offset="0" stop-color="#21a09c"/>
      <stop offset="1" stop-color="#005653"/>
    </linearGradient>
    <linearGradient id="linear-gradient-3" x1="0.71" y1="0.895" x2="0.29" y2="0.105" gradientUnits="objectBoundingBox">
      <stop offset="0" stop-color="#00807c"/>
      <stop offset="1" stop-color="#3ab6b2"/>
    </linearGradient>
  </defs>
  <g id="Logo" transform="translate(-25 -29)">
    <text id="ARRY" transform="translate(51 68)" fill="#fff" font-size="36" font-family="Raleway" letter-spacing="0.016em"><tspan x="0" y="0">ARRY</tspan></text>
    <g id="Shape_30" data-name="Shape 30">
      <path id="Shape_30-2" data-name="Shape 30" d="M35.527,49.417l10.367-5.833,6.027,5.1L35.607,57.521Z" fill="#3ab6b2"/>
      <path id="Gradient_Overlay" data-name="Gradient Overlay" d="M35.527,49.417l10.367-5.833,6.027,5.1L35.607,57.521Z" opacity="0.77" fill="url(#linear-gradient)"/>
    </g>
    <g id="Shape_31" data-name="Shape 31">
      <path id="Shape_31-2" data-name="Shape 31" d="M25.08,33.537l7.715,3.646.031,32.831L25.08,70Z" fill="#3ab6b2"/>
      <path id="Gradient_Overlay-2" data-name="Gradient Overlay" d="M25.08,33.537l7.715,3.646.031,32.831L25.08,70Z" opacity="0.77" fill="url(#linear-gradient-2)"/>
    </g>
    <g id="Shape_29" data-name="Shape 29">
      <path id="Shape_29-2" data-name="Shape 29" d="M25,33.537,32.634,29,52,40.1l-.08,8.67Z" fill="#3ab6b2"/>
      <path id="Gradient_Overlay-3" data-name="Gradient Overlay" d="M25,33.537,32.634,29,52,40.1l-.08,8.67Z" opacity="0.77" fill="url(#linear-gradient-3)"/>
    </g>
  </g>
</svg>
